<?xml version="1.0" encoding="utf-8"?>
<!-- Generator: Adobe Illustrator 24.0.0, SVG Export Plug-In . SVG Version: 6.00 Build 0)  -->
<svg version="1.1" id="Layer_1" xmlns="http://www.w3.org/2000/svg" xmlns:xlink="http://www.w3.org/1999/xlink" x="0px" y="0px"
	 viewBox="0 0 80 80" style="enable-background:new 0 0 80 80;" xml:space="preserve">
<style type="text/css">
	.st0{fill:#EF4D5A;}
	.st1{fill:#FFFFFF;}
</style>
<g>
	<path class="st0" d="M77.42,26.6l-8.98-15.55l-1.52-0.88h-35.9l-1.52,2.63l8.47,14.67l-2.46,4.26L23.57,11.05l-1.52-0.88H4.1
		l-1.52,2.63l22.44,38.86h3.04l7.45-12.91l7.45,12.91h3.04l2.97-5.14l2.97,5.14l1.52,0.88h17.95l1.52-2.63l-3.98-6.89l8.47-14.67
		V26.6z M26.54,47.28l-19.4-33.6h13.89l12.45,21.56L26.54,47.28z M44.49,47.28l-6.95-12.03l3.47-6.02h13.89l-7.45,12.91v0
		L44.49,47.28z M65.41,42.15v1.76l2.97,5.14H54.48L51,43.02l8.47-14.67l-1.52-2.63H41.01l-6.95-12.03h31.85l7.96,13.79L65.41,42.15z
		"/>
	<g>
		<g>
			<path class="st1" d="M3.55,69.82L0,60.06h2.08l2.24,6.12l2.24-6.12H8.4l2.25,6.12l2.24-6.12h2.08l-3.55,9.77H9.89l-2.41-6.59
				l-2.4,6.59H3.55z"/>
			<path class="st1" d="M16.18,69.56c-0.29-0.18-0.52-0.41-0.7-0.7c-0.18-0.29-0.26-0.61-0.26-0.95v-4.04
				c0-0.34,0.09-0.66,0.26-0.95s0.41-0.52,0.7-0.7c0.29-0.18,0.61-0.26,0.95-0.26h4.15c0.35,0,0.67,0.09,0.96,0.26
				c0.29,0.18,0.52,0.41,0.69,0.7c0.17,0.29,0.26,0.61,0.26,0.95v3h-6.05v0.95c0,0.02,0.01,0.04,0.03,0.05
				c0.02,0.02,0.04,0.03,0.05,0.03h5.97v1.93h-6.06C16.79,69.82,16.47,69.74,16.18,69.56z M17.14,65.14h4.12v-1.18
				c0-0.02-0.01-0.04-0.03-0.05c-0.02-0.02-0.04-0.03-0.05-0.03h-3.96c-0.02,0-0.04,0.01-0.05,0.03c-0.02,0.02-0.03,0.04-0.03,0.05
				V65.14z"/>
			<path class="st1" d="M24.65,69.82v-9.75h1.93v1.89h4.14c0.35,0,0.67,0.09,0.96,0.26c0.29,0.18,0.52,0.41,0.69,0.7
				c0.17,0.29,0.26,0.61,0.26,0.95v4.04c0,0.34-0.09,0.66-0.26,0.95c-0.17,0.29-0.4,0.52-0.69,0.7c-0.29,0.18-0.61,0.26-0.96,0.26
				H24.65z M26.65,67.9h3.96c0.03,0,0.05-0.01,0.06-0.03c0.01-0.02,0.02-0.04,0.02-0.05v-3.85c0-0.02-0.01-0.04-0.02-0.05
				c-0.01-0.02-0.03-0.03-0.06-0.03h-3.96c-0.02,0-0.04,0.01-0.05,0.03c-0.02,0.02-0.03,0.04-0.03,0.05v3.85
				c0,0.02,0.01,0.04,0.03,0.05C26.62,67.89,26.63,67.9,26.65,67.9z"/>
			<path class="st1" d="M33.72,69.82v-9.75h7.8c0.36,0,0.69,0.09,0.98,0.26c0.29,0.18,0.53,0.41,0.71,0.71
				c0.18,0.3,0.27,0.62,0.27,0.98v2.58c0,0.35-0.09,0.68-0.27,0.97c-0.18,0.29-0.42,0.53-0.71,0.71c-0.29,0.18-0.62,0.26-0.98,0.26
				l-5.85,0.01v3.27H33.72z M35.75,64.57h5.67c0.03,0,0.05-0.01,0.06-0.02s0.02-0.03,0.02-0.05v-2.4c0-0.03-0.01-0.05-0.02-0.06
				c-0.01-0.01-0.03-0.02-0.06-0.02h-5.67c-0.03,0-0.05,0.01-0.06,0.02c-0.01,0.01-0.02,0.03-0.02,0.06v2.4
				c0,0.02,0.01,0.03,0.02,0.05C35.71,64.57,35.73,64.57,35.75,64.57z M41.4,69.82l-2.89-3.45h2.56l2.39,2.83v0.61H41.4z"/>
			<path class="st1" d="M45.81,69.56c-0.29-0.18-0.52-0.41-0.7-0.7c-0.18-0.29-0.26-0.61-0.26-0.95v-4.04
				c0-0.34,0.09-0.66,0.26-0.95s0.41-0.52,0.7-0.7c0.29-0.18,0.61-0.26,0.95-0.26h4.15c0.35,0,0.67,0.09,0.96,0.26
				c0.29,0.18,0.52,0.41,0.69,0.7c0.17,0.29,0.26,0.61,0.26,0.95v3h-6.05v0.95c0,0.02,0.01,0.04,0.03,0.05
				c0.02,0.02,0.04,0.03,0.05,0.03h5.97v1.93h-6.06C46.41,69.82,46.09,69.74,45.81,69.56z M46.77,65.14h4.12v-1.18
				c0-0.02-0.01-0.04-0.03-0.05c-0.02-0.02-0.04-0.03-0.05-0.03h-3.96c-0.02,0-0.04,0.01-0.05,0.03c-0.02,0.02-0.03,0.04-0.03,0.05
				V65.14z"/>
			<path class="st1" d="M54.8,69.56c-0.29-0.18-0.52-0.41-0.69-0.7c-0.17-0.29-0.26-0.61-0.26-0.95v-4.04
				c0-0.34,0.09-0.66,0.26-0.95c0.17-0.29,0.4-0.52,0.69-0.7c0.29-0.18,0.61-0.26,0.98-0.26h4.14v-1.89h1.93v9.75h-6.06
				C55.41,69.82,55.09,69.74,54.8,69.56z M55.87,67.9h3.96c0.02,0,0.04-0.01,0.05-0.03c0.02-0.02,0.03-0.04,0.03-0.05v-3.85
				c0-0.02-0.01-0.04-0.03-0.05c-0.02-0.02-0.04-0.03-0.05-0.03h-3.96c-0.02,0-0.04,0.01-0.05,0.03c-0.02,0.02-0.03,0.04-0.03,0.05
				v3.85c0,0.02,0.01,0.04,0.03,0.05C55.83,67.89,55.85,67.9,55.87,67.9z"/>
			<path class="st1" d="M63.93,69.56c-0.29-0.18-0.52-0.41-0.7-0.7c-0.18-0.29-0.26-0.61-0.26-0.95v-4.04
				c0-0.34,0.09-0.66,0.26-0.95s0.41-0.52,0.7-0.7c0.29-0.18,0.61-0.26,0.95-0.26h4.15c0.35,0,0.67,0.09,0.96,0.26
				c0.29,0.18,0.52,0.41,0.69,0.7c0.17,0.29,0.26,0.61,0.26,0.95v4.04c0,0.34-0.09,0.66-0.26,0.95c-0.17,0.29-0.4,0.52-0.69,0.7
				c-0.29,0.18-0.61,0.26-0.96,0.26h-4.15C64.53,69.82,64.22,69.74,63.93,69.56z M64.97,67.9h3.96c0.02,0,0.04-0.01,0.05-0.03
				c0.02-0.02,0.03-0.04,0.03-0.05v-3.85c0-0.02-0.01-0.04-0.03-0.05c-0.02-0.02-0.04-0.03-0.05-0.03h-3.96
				c-0.02,0-0.04,0.01-0.05,0.03c-0.02,0.02-0.03,0.04-0.03,0.05v3.85c0,0.02,0.01,0.04,0.03,0.05
				C64.93,67.89,64.95,67.9,64.97,67.9z"/>
			<path class="st1" d="M71.9,69.82v-0.58l2.79-3.42l-2.79-3.28v-0.58h2.03l2.02,2.39l2.01-2.39H80v0.58l-2.79,3.28L80,69.24v0.58
				h-2.02l-2.02-2.48l-2.02,2.48H71.9z"/>
		</g>
	</g>
</g>
</svg>
